<svg width="400" height="400" viewBox="0 0 400 400" fill="none" xmlns="http://www.w3.org/2000/svg"><rect width="400" height="400" rx="16" fill="#F0F9FF"/><defs><linearGradient id="g6" x1="0%" y1="0%" x2="100%" y2="100%"><stop offset="0%" stop-color="#0284C7" stop-opacity="0.1"/><stop offset="100%" stop-color="#0284C7" stop-opacity="0.02"/></linearGradient></defs><rect x="30" y="50" width="340" height="210" rx="12" fill="url(#g6)"/><rect x="30" y="50" width="340" height="210" rx="12" stroke="#0284C7" stroke-width="1.5" stroke-opacity="0.15"/><rect x="45" y="65" width="310" height="180" rx="6" fill="#0284C7" opacity="0.04"/><rect x="55" y="75" width="290" height="160" rx="4" fill="#0284C7" opacity="0.03"/><rect x="55" y="75" width="290" height="5" rx="2" fill="#0284C7" opacity="0.08"/><rect x="55" y="230" width="290" height="5" rx="2" fill="#0284C7" opacity="0.08"/><rect x="55" y="120" width="40" height="60" rx="3" fill="#0284C7" opacity="0.06"/><rect x="200" y="120" width="100" height="40" rx="3" fill="#0284C7" opacity="0.04"/><circle cx="320" cy="220" r="10" fill="#0284C7" opacity="0.15"/><rect x="140" y="278" width="120" height="10" rx="5" fill="#1E293B" opacity="0.08"/><rect x="150" y="296" width="100" height="8" rx="4" fill="#1E293B" opacity="0.05"/><rect x="160" y="314" width="80" height="8" rx="4" fill="#1E293B" opacity="0.03"/></svg>