<svg width="400" height="400" viewBox="0 0 400 400" fill="none" xmlns="http://www.w3.org/2000/svg"><rect width="400" height="400" rx="16" fill="#F0F9FF"/><defs><linearGradient id="g1" x1="0%" y1="0%" x2="100%" y2="100%"><stop offset="0%" stop-color="#2563EB" stop-opacity="0.1"/><stop offset="100%" stop-color="#2563EB" stop-opacity="0.02"/></linearGradient></defs><rect x="60" y="40" width="280" height="220" rx="20" fill="url(#g1)"/><rect x="60" y="40" width="280" height="220" rx="20" stroke="#2563EB" stroke-width="1.5" stroke-opacity="0.15"/><circle cx="200" cy="130" r="40" fill="#1E293B" opacity="0.06"/><ellipse cx="200" cy="130" rx="25" ry="30" fill="#1E293B" opacity="0.08"/><rect x="160" y="100" width="80" height="60" rx="30" fill="#2563EB" opacity="0.08"/><rect x="175" y="105" width="50" height="50" rx="25" fill="#2563EB" opacity="0.12"/><circle cx="200" cy="130" r="15" fill="#2563EB" opacity="0.15"/><rect x="100" y="190" width="200" height="4" rx="2" fill="#2563EB" opacity="0.06"/><rect x="120" y="200" width="160" height="4" rx="2" fill="#2563EB" opacity="0.04"/><rect x="140" y="280" width="120" height="10" rx="5" fill="#1E293B" opacity="0.08"/><rect x="150" y="298" width="100" height="8" rx="4" fill="#1E293B" opacity="0.05"/><rect x="160" y="316" width="80" height="8" rx="4" fill="#1E293B" opacity="0.03"/></svg>