<svg width="400" height="400" viewBox="0 0 400 400" fill="none" xmlns="http://www.w3.org/2000/svg"><rect width="400" height="400" rx="16" fill="#FFFBEB"/><defs><linearGradient id="g5" x1="0%" y1="0%" x2="100%" y2="100%"><stop offset="0%" stop-color="#D97706" stop-opacity="0.12"/><stop offset="100%" stop-color="#D97706" stop-opacity="0.02"/></linearGradient></defs><rect x="50" y="50" width="300" height="220" rx="20" fill="url(#g5)"/><rect x="50" y="50" width="300" height="220" rx="20" stroke="#D97706" stroke-width="1.5" stroke-opacity="0.15"/><rect x="80" y="70" width="100" height="60" rx="10" fill="#D97706" opacity="0.08"/><rect x="220" y="70" width="100" height="60" rx="10" fill="#D97706" opacity="0.08"/><rect x="80" y="150" width="100" height="100" rx="10" fill="#D97706" opacity="0.06"/><rect x="220" y="150" width="100" height="100" rx="10" fill="#D97706" opacity="0.06"/><rect x="80" y="70" width="100" height="180" rx="10" fill="#D97706" opacity="0.04"/><rect x="220" y="70" width="100" height="180" rx="10" fill="#D97706" opacity="0.04"/><rect x="130" y="100" width="120" height="20" rx="10" fill="#D97706" opacity="0.06"/><rect x="140" y="295" width="120" height="10" rx="5" fill="#1E293B" opacity="0.08"/><rect x="150" y="313" width="100" height="8" rx="4" fill="#1E293B" opacity="0.05"/></svg>