<svg width="400" height="400" viewBox="0 0 400 400" fill="none" xmlns="http://www.w3.org/2000/svg"><rect width="400" height="400" rx="16" fill="#ECFDF5"/><defs><linearGradient id="g8" x1="0%" y1="0%" x2="100%" y2="100%"><stop offset="0%" stop-color="#10B981" stop-opacity="0.12"/><stop offset="100%" stop-color="#10B981" stop-opacity="0.02"/></linearGradient></defs><rect x="50" y="50" width="300" height="200" rx="12" fill="url(#g8)"/><rect x="50" y="50" width="300" height="200" rx="12" stroke="#10B981" stroke-width="1.5" stroke-opacity="0.15"/><rect x="70" y="70" width="100" height="160" rx="6" fill="#10B981" opacity="0.06"/><rect x="75" y="75" width="90" height="150" rx="4" fill="#10B981" opacity="0.04"/><rect x="100" y="80" width="40" height="140" rx="20" fill="#10B981" opacity="0.06"/><rect x="190" y="70" width="100" height="160" rx="6" fill="#10B981" opacity="0.05"/><rect x="195" y="75" width="90" height="150" rx="4" fill="#10B981" opacity="0.03"/><rect x="220" y="80" width="40" height="140" rx="20" fill="#10B981" opacity="0.05"/><rect x="310" y="70" width="30" height="160" rx="6" fill="#10B981" opacity="0.04"/><rect x="70" y="230" width="260" height="4" rx="2" fill="#10B981" opacity="0.08"/><rect x="140" y="268" width="120" height="10" rx="5" fill="#1E293B" opacity="0.08"/><rect x="150" y="286" width="100" height="8" rx="4" fill="#1E293B" opacity="0.05"/><rect x="160" y="304" width="80" height="8" rx="4" fill="#1E293B" opacity="0.03"/></svg>