<svg width="400" height="400" viewBox="0 0 400 400" fill="none" xmlns="http://www.w3.org/2000/svg"><rect width="400" height="400" rx="16" fill="#F0FDF4"/><defs><linearGradient id="g3" x1="0%" y1="0%" x2="100%" y2="100%"><stop offset="0%" stop-color="#059669" stop-opacity="0.1"/><stop offset="100%" stop-color="#059669" stop-opacity="0.02"/></linearGradient></defs><rect x="70" y="50" width="260" height="220" rx="16" fill="url(#g3)"/><rect x="70" y="50" width="260" height="220" rx="16" stroke="#059669" stroke-width="1.5" stroke-opacity="0.15"/><rect x="100" y="70" width="200" height="60" rx="8" fill="#059669" opacity="0.08"/><rect x="100" y="75" width="200" height="10" rx="3" fill="#059669" opacity="0.06"/><rect x="100" y="90" width="150" height="10" rx="3" fill="#059669" opacity="0.04"/><rect x="100" y="105" width="180" height="10" rx="3" fill="#059669" opacity="0.05"/><rect x="100" y="150" width="200" height="50" rx="8" fill="#059669" opacity="0.06"/><rect x="100" y="155" width="200" height="8" rx="3" fill="#059669" opacity="0.04"/><rect x="100" y="168" width="140" height="8" rx="3" fill="#059669" opacity="0.03"/><rect x="100" y="220" width="200" height="30" rx="15" fill="#059669" opacity="0.08"/><rect x="180" y="228" width="40" height="14" rx="7" fill="#059669" opacity="0.12"/><rect x="140" y="290" width="120" height="10" rx="5" fill="#1E293B" opacity="0.08"/><rect x="150" y="308" width="100" height="8" rx="4" fill="#1E293B" opacity="0.05"/></svg>