<svg width="400" height="400" viewBox="0 0 400 400" fill="none" xmlns="http://www.w3.org/2000/svg"><rect width="400" height="400" rx="16" fill="#F5F3FF"/><defs><linearGradient id="g4" x1="0%" y1="0%" x2="100%" y2="100%"><stop offset="0%" stop-color="#8B5CF6" stop-opacity="0.1"/><stop offset="100%" stop-color="#8B5CF6" stop-opacity="0.02"/></linearGradient></defs><rect x="40" y="70" width="320" height="170" rx="30" fill="url(#g4)"/><rect x="40" y="70" width="320" height="170" rx="30" stroke="#8B5CF6" stroke-width="1.5" stroke-opacity="0.15"/><rect x="60" y="90" width="280" height="60" rx="30" fill="#8B5CF6" opacity="0.06"/><rect x="150" y="95" width="100" height="50" rx="25" fill="#8B5CF6" opacity="0.08"/><rect x="60" y="170" width="80" height="15" rx="5" fill="#8B5CF6" opacity="0.08"/><rect x="150" y="170" width="80" height="15" rx="5" fill="#8B5CF6" opacity="0.06"/><rect x="240" y="170" width="100" height="15" rx="5" fill="#8B5CF6" opacity="0.04"/><circle cx="120" cy="210" r="8" fill="#8B5CF6" opacity="0.15"/><circle cx="280" cy="210" r="8" fill="#8B5CF6" opacity="0.15"/><rect x="140" y="258" width="120" height="10" rx="5" fill="#1E293B" opacity="0.08"/><rect x="150" y="276" width="100" height="8" rx="4" fill="#1E293B" opacity="0.05"/><rect x="160" y="294" width="80" height="8" rx="4" fill="#1E293B" opacity="0.03"/></svg>