<svg width="400" height="400" viewBox="0 0 400 400" fill="none" xmlns="http://www.w3.org/2000/svg"><rect width="400" height="400" rx="16" fill="#FFF1F2"/><defs><linearGradient id="g7" x1="0%" y1="0%" x2="100%" y2="100%"><stop offset="0%" stop-color="#E11D48" stop-opacity="0.1"/><stop offset="100%" stop-color="#E11D48" stop-opacity="0.02"/></linearGradient></defs><rect x="80" y="30" width="240" height="250" rx="80" fill="url(#g7)"/><rect x="80" y="30" width="240" height="250" rx="80" stroke="#E11D48" stroke-width="1.5" stroke-opacity="0.12"/><rect x="110" y="50" width="180" height="210" rx="60" fill="#E11D48" opacity="0.05"/><rect x="125" y="65" width="150" height="180" rx="40" fill="#E11D48" opacity="0.04"/><rect x="140" y="80" width="120" height="150" rx="30" fill="#E11D48" opacity="0.03"/><rect x="135" y="100" width="130" height="8" rx="4" fill="#E11D48" opacity="0.08"/><rect x="135" y="120" width="90" height="8" rx="4" fill="#E11D48" opacity="0.06"/><rect x="135" y="140" width="110" height="8" rx="4" fill="#E11D48" opacity="0.05"/><rect x="135" y="160" width="70" height="8" rx="4" fill="#E11D48" opacity="0.04"/><rect x="140" y="300" width="120" height="10" rx="5" fill="#1E293B" opacity="0.08"/><rect x="150" y="318" width="100" height="8" rx="4" fill="#1E293B" opacity="0.05"/></svg>