<svg width="400" height="400" viewBox="0 0 400 400" fill="none" xmlns="http://www.w3.org/2000/svg"><rect width="400" height="400" rx="16" fill="#FFF1F2"/><defs><linearGradient id="g2" x1="0%" y1="0%" x2="100%" y2="100%"><stop offset="0%" stop-color="#F43F5E" stop-opacity="0.1"/><stop offset="100%" stop-color="#F43F5E" stop-opacity="0.02"/></linearGradient></defs><rect x="50" y="60" width="300" height="200" rx="16" fill="url(#g2)"/><rect x="50" y="60" width="300" height="200" rx="16" stroke="#F43F5E" stroke-width="1.5" stroke-opacity="0.15"/><path d="M120 120 L200 80 L280 120 L280 200 L200 240 L120 200Z" fill="#F43F5E" opacity="0.06"/><path d="M140 130 L200 95 L260 130V195L200 230L140 195Z" fill="#F43F5E" opacity="0.08"/><path d="M160 140 L200 115 L240 140V185L200 210L160 185Z" fill="#F43F5E" opacity="0.1"/><rect x="130" y="150" width="140" height="60" rx="8" fill="#F43F5E" opacity="0.05"/><circle cx="200" cy="180" r="12" fill="#F43F5E" opacity="0.12"/><rect x="140" y="280" width="120" height="10" rx="5" fill="#1E293B" opacity="0.08"/><rect x="150" y="298" width="100" height="8" rx="4" fill="#1E293B" opacity="0.05"/><rect x="160" y="316" width="80" height="8" rx="4" fill="#1E293B" opacity="0.03"/></svg>